<?xml version="1.0"?>
<svg data-name="Layer 1" id="Layer_1" viewBox="0 0 64 64" xmlns="http://www.w3.org/2000/svg">
	<defs>
		<style>
			.cls-1{fill:#f54291;}
		</style>
	</defs>
	<title />
	<circle class="cls-1" cx="12" cy="3.5" r="0.5" />
	<path class="cls-1" d="M9.17,27.78a6.32,6.32,0,0,0,2.32-.47,5,5,0,0,0,2.85-2.41,2,2,0,0,0,.15-.85s0,0,0-.05V14c.19.31.4.58.6.85A5.88,5.88,0,0,1,16.5,19a.5.5,0,0,0,1,0,6.77,6.77,0,0,0-1.6-4.8A5.88,5.88,0,0,1,14.5,10a.5.5,0,0,0-1,0V22.59a5,5,0,0,0-4,.1A5,5,0,0,0,6.66,25.1a1.83,1.83,0,0,0,0,1.45A2.59,2.59,0,0,0,9.17,27.78Zm-1.58-2.3a4.09,4.09,0,0,1,2.28-1.86,5.56,5.56,0,0,1,2-.41c.82,0,1.42.25,1.6.65a.81.81,0,0,1,0,.66,4.09,4.09,0,0,1-2.28,1.86c-1.74.69-3.28.43-3.58-.24A.81.81,0,0,1,7.59,25.48Z" />
	<path class="cls-1" d="M19,33.5H17.5V33a.5.5,0,0,0-1,0v.5H5a.5.5,0,0,0,0,1H16.5V35a.5.5,0,0,0,1,0v-.5H19a.5.5,0,0,0,0-1Z" />
	<path class="cls-1" d="M60.89,58.5H56a1.5,1.5,0,0,0-1.4,1A11.5,11.5,0,0,1,43.5,48V34.5a5,5,0,0,0-9-3V9.41A1.51,1.51,0,0,0,35.5,8V5.87a.51.51,0,0,1,.31-.5,2.51,2.51,0,0,0,.81-4.28,2.53,2.53,0,0,0-2-.56A2.59,2.59,0,0,0,32.5,3.11V8a1.51,1.51,0,0,0,1,1.41V55a7.5,7.5,0,0,1-15,0V40H20a3,3,0,0,0,3-3V3a3,3,0,0,0-3-3H4A3,3,0,0,0,1,3V6A1,1,0,0,0,0,7V9a1,1,0,0,0,1,1v2a1,1,0,0,0-1,1v2a1,1,0,0,0,1,1V37a3,3,0,0,0,3,3H17.5V55a8.5,8.5,0,0,0,17,0V34.5a4,4,0,0,1,8,0V48A12.51,12.51,0,0,0,54.59,60.48a1.49,1.49,0,0,0,1.41,1h2.13a.51.51,0,0,1,.5.31,2.51,2.51,0,0,0,4.84-1.23A2.59,2.59,0,0,0,60.89,58.5ZM33.5,3.11a1.59,1.59,0,0,1,1.24-1.59A1.5,1.5,0,0,1,36,1.86,1.47,1.47,0,0,1,36.5,3a1.51,1.51,0,0,1-1,1.42,1.51,1.51,0,0,0-1,1.45V8a.5.5,0,0,1-1,0ZM4,2H20a1,1,0,0,1,.85.5H19.5a2.87,2.87,0,0,0-2.24,1.16,1.92,1.92,0,0,1-1.51.84H8.25a1.92,1.92,0,0,1-1.51-.84A2.87,2.87,0,0,0,4.5,2.5H3.15A1,1,0,0,1,4,2ZM3,37V3.5H4.5A1.92,1.92,0,0,1,6,4.34,2.87,2.87,0,0,0,8.25,5.5h7.5A2.87,2.87,0,0,0,18,4.34,1.92,1.92,0,0,1,19.5,3.5H21V37a1,1,0,0,1-1,1H4A1,1,0,0,1,3,37ZM62.14,62A1.47,1.47,0,0,1,61,62.5a1.51,1.51,0,0,1-1.42-1,1.51,1.51,0,0,0-1.45-1H56a.5.5,0,0,1,0-1h4.89a1.59,1.59,0,0,1,1.59,1.24A1.51,1.51,0,0,1,62.14,62Z" />
</svg>
